<mxfile host="app.diagrams.net" agent="Mozilla/5.0 (Windows NT 10.0; Win64; x64; rv:133.0) Gecko/20100101 Firefox/133.0" version="26.0.2">
  <diagram name="Page-1" id="a-nD0O29PPolzat-MXFn">
    <mxGraphModel dx="1050" dy="529" grid="1" gridSize="10" guides="1" tooltips="1" connect="1" arrows="1" fold="1" page="1" pageScale="1" pageWidth="850" pageHeight="1100" math="0" shadow="0">
      <root>
        <mxCell id="0" />
        <mxCell id="1" parent="0" />
        <mxCell id="yOXgbCq-tr6oRjj7aDOA-10" style="edgeStyle=orthogonalEdgeStyle;rounded=0;orthogonalLoop=1;jettySize=auto;html=1;exitX=0.5;exitY=1;exitDx=0;exitDy=0;entryX=0;entryY=0.5;entryDx=0;entryDy=0;" edge="1" parent="1" source="yOXgbCq-tr6oRjj7aDOA-1" target="yOXgbCq-tr6oRjj7aDOA-2">
          <mxGeometry relative="1" as="geometry" />
        </mxCell>
        <mxCell id="yOXgbCq-tr6oRjj7aDOA-1" value="&lt;font style=&quot;font-size: 13px;&quot;&gt;&lt;b&gt;&lt;font face=&quot;Times New Roman&quot;&gt;Start&lt;/font&gt;&lt;/b&gt;&lt;/font&gt;" style="ellipse;whiteSpace=wrap;html=1;" vertex="1" parent="1">
          <mxGeometry x="50" y="50" width="100" height="70" as="geometry" />
        </mxCell>
        <mxCell id="yOXgbCq-tr6oRjj7aDOA-11" style="edgeStyle=orthogonalEdgeStyle;rounded=0;orthogonalLoop=1;jettySize=auto;html=1;exitX=0.5;exitY=1;exitDx=0;exitDy=0;entryX=0;entryY=0.5;entryDx=0;entryDy=0;" edge="1" parent="1" source="yOXgbCq-tr6oRjj7aDOA-2" target="yOXgbCq-tr6oRjj7aDOA-5">
          <mxGeometry relative="1" as="geometry" />
        </mxCell>
        <mxCell id="yOXgbCq-tr6oRjj7aDOA-2" value="&lt;b&gt;&lt;font face=&quot;Times New Roman&quot;&gt;Prompt User for Input&lt;/font&gt;&lt;/b&gt;" style="rounded=0;whiteSpace=wrap;html=1;" vertex="1" parent="1">
          <mxGeometry x="140" y="120" width="120" height="60" as="geometry" />
        </mxCell>
        <mxCell id="yOXgbCq-tr6oRjj7aDOA-14" style="edgeStyle=orthogonalEdgeStyle;rounded=0;orthogonalLoop=1;jettySize=auto;html=1;exitX=0.5;exitY=1;exitDx=0;exitDy=0;entryX=0;entryY=0.5;entryDx=0;entryDy=0;" edge="1" parent="1" source="yOXgbCq-tr6oRjj7aDOA-5" target="yOXgbCq-tr6oRjj7aDOA-7">
          <mxGeometry relative="1" as="geometry" />
        </mxCell>
        <mxCell id="yOXgbCq-tr6oRjj7aDOA-5" value="&lt;b&gt;&lt;font face=&quot;Times New Roman&quot;&gt;Store Data in CSV&lt;/font&gt;&lt;/b&gt;" style="rounded=0;whiteSpace=wrap;html=1;" vertex="1" parent="1">
          <mxGeometry x="220" y="190" width="120" height="60" as="geometry" />
        </mxCell>
        <mxCell id="yOXgbCq-tr6oRjj7aDOA-15" style="edgeStyle=orthogonalEdgeStyle;rounded=0;orthogonalLoop=1;jettySize=auto;html=1;exitX=0.5;exitY=1;exitDx=0;exitDy=0;entryX=0;entryY=0.5;entryDx=0;entryDy=0;" edge="1" parent="1" source="yOXgbCq-tr6oRjj7aDOA-7" target="yOXgbCq-tr6oRjj7aDOA-9">
          <mxGeometry relative="1" as="geometry" />
        </mxCell>
        <mxCell id="yOXgbCq-tr6oRjj7aDOA-7" value="&lt;b&gt;&lt;font face=&quot;Times New Roman&quot;&gt;Construct SQL Query&lt;/font&gt;&lt;/b&gt;" style="rounded=0;whiteSpace=wrap;html=1;" vertex="1" parent="1">
          <mxGeometry x="305" y="260" width="120" height="60" as="geometry" />
        </mxCell>
        <mxCell id="yOXgbCq-tr6oRjj7aDOA-18" style="edgeStyle=orthogonalEdgeStyle;rounded=0;orthogonalLoop=1;jettySize=auto;html=1;exitX=0.5;exitY=1;exitDx=0;exitDy=0;entryX=0.5;entryY=0;entryDx=0;entryDy=0;" edge="1" parent="1" source="yOXgbCq-tr6oRjj7aDOA-9" target="yOXgbCq-tr6oRjj7aDOA-17">
          <mxGeometry relative="1" as="geometry" />
        </mxCell>
        <mxCell id="yOXgbCq-tr6oRjj7aDOA-9" value="&lt;b&gt;&lt;font face=&quot;Times New Roman&quot;&gt;Execute Query&lt;/font&gt;&lt;/b&gt;" style="rounded=0;whiteSpace=wrap;html=1;" vertex="1" parent="1">
          <mxGeometry x="400" y="330" width="120" height="60" as="geometry" />
        </mxCell>
        <mxCell id="yOXgbCq-tr6oRjj7aDOA-19" style="edgeStyle=orthogonalEdgeStyle;rounded=0;orthogonalLoop=1;jettySize=auto;html=1;exitX=1;exitY=0.5;exitDx=0;exitDy=0;" edge="1" parent="1" source="yOXgbCq-tr6oRjj7aDOA-17">
          <mxGeometry relative="1" as="geometry">
            <mxPoint x="560" y="475" as="targetPoint" />
          </mxGeometry>
        </mxCell>
        <mxCell id="yOXgbCq-tr6oRjj7aDOA-21" style="edgeStyle=orthogonalEdgeStyle;rounded=0;orthogonalLoop=1;jettySize=auto;html=1;exitX=0;exitY=0.5;exitDx=0;exitDy=0;" edge="1" parent="1" source="yOXgbCq-tr6oRjj7aDOA-17">
          <mxGeometry relative="1" as="geometry">
            <mxPoint x="330" y="475" as="targetPoint" />
          </mxGeometry>
        </mxCell>
        <mxCell id="yOXgbCq-tr6oRjj7aDOA-17" value="&lt;br&gt;&lt;b&gt;&lt;font face=&quot;Times New Roman&quot;&gt;Repay Loan Now?&lt;/font&gt;&lt;/b&gt;&lt;div&gt;&lt;br/&gt;&lt;/div&gt;" style="rhombus;whiteSpace=wrap;html=1;" vertex="1" parent="1">
          <mxGeometry x="417.5" y="430" width="85" height="90" as="geometry" />
        </mxCell>
        <mxCell id="yOXgbCq-tr6oRjj7aDOA-24" style="edgeStyle=orthogonalEdgeStyle;rounded=0;orthogonalLoop=1;jettySize=auto;html=1;exitX=0.5;exitY=1;exitDx=0;exitDy=0;entryX=1;entryY=0.5;entryDx=0;entryDy=0;" edge="1" parent="1" source="yOXgbCq-tr6oRjj7aDOA-20" target="yOXgbCq-tr6oRjj7aDOA-23">
          <mxGeometry relative="1" as="geometry" />
        </mxCell>
        <mxCell id="yOXgbCq-tr6oRjj7aDOA-20" value="&lt;font style=&quot;font-size: 13px;&quot;&gt;&lt;b&gt;&lt;font face=&quot;Times New Roman&quot;&gt;&lt;sub&gt;Process Repayment&lt;/sub&gt;&lt;/font&gt;&lt;/b&gt;&lt;/font&gt;" style="rounded=0;whiteSpace=wrap;html=1;" vertex="1" parent="1">
          <mxGeometry x="560" y="445" width="120" height="60" as="geometry" />
        </mxCell>
        <mxCell id="yOXgbCq-tr6oRjj7aDOA-25" style="edgeStyle=orthogonalEdgeStyle;rounded=0;orthogonalLoop=1;jettySize=auto;html=1;exitX=0.5;exitY=1;exitDx=0;exitDy=0;entryX=0;entryY=0.5;entryDx=0;entryDy=0;" edge="1" parent="1" source="yOXgbCq-tr6oRjj7aDOA-22" target="yOXgbCq-tr6oRjj7aDOA-23">
          <mxGeometry relative="1" as="geometry" />
        </mxCell>
        <mxCell id="yOXgbCq-tr6oRjj7aDOA-22" value="&lt;font style=&quot;font-size: 14px;&quot; face=&quot;Times New Roman&quot;&gt;&lt;b&gt;&lt;sub&gt;Back to main menu &lt;br&gt;&lt;/sub&gt;&lt;/b&gt;&lt;/font&gt;" style="rounded=0;whiteSpace=wrap;html=1;" vertex="1" parent="1">
          <mxGeometry x="220" y="445" width="120" height="60" as="geometry" />
        </mxCell>
        <mxCell id="yOXgbCq-tr6oRjj7aDOA-23" value="&lt;font style=&quot;font-size: 13px;&quot; face=&quot;Times New Roman&quot;&gt;&lt;b&gt;End &lt;br&gt;&lt;/b&gt;&lt;/font&gt;" style="ellipse;whiteSpace=wrap;html=1;" vertex="1" parent="1">
          <mxGeometry x="417.5" y="570" width="100" height="70" as="geometry" />
        </mxCell>
        <mxCell id="yOXgbCq-tr6oRjj7aDOA-26" value="&lt;b&gt;&lt;font face=&quot;Times New Roman&quot;&gt;yes&lt;/font&gt;&lt;/b&gt;" style="text;html=1;align=center;verticalAlign=middle;whiteSpace=wrap;rounded=0;" vertex="1" parent="1">
          <mxGeometry x="496" y="449" width="60" height="30" as="geometry" />
        </mxCell>
        <mxCell id="yOXgbCq-tr6oRjj7aDOA-27" value="&lt;font face=&quot;Times New Roman&quot;&gt;&lt;b&gt;no&lt;/b&gt;&lt;/font&gt;" style="text;html=1;align=center;verticalAlign=middle;whiteSpace=wrap;rounded=0;" vertex="1" parent="1">
          <mxGeometry x="348" y="450" width="60" height="30" as="geometry" />
        </mxCell>
      </root>
    </mxGraphModel>
  </diagram>
</mxfile>
